<svg width="28" height="25" viewBox="0 0 28 25" fill="none" xmlns="http://www.w3.org/2000/svg">
<path d="M24.5 21.875V5.20833H3.49999V13.5417H1.16666V5.20833C1.16666 4.63542 1.39513 4.14497 1.85207 3.73698C2.30902 3.32899 2.85832 3.125 3.49999 3.125H24.5C25.1417 3.125 25.691 3.32899 26.1479 3.73698C26.6049 4.14497 26.8333 4.63542 26.8333 5.20833V19.7917C26.8333 20.3646 26.6049 20.855 26.1479 21.263C25.691 21.671 25.1417 21.875 24.5 21.875ZM10.5 14.5833C9.21666 14.5833 8.11805 14.1753 7.20416 13.3594C6.29027 12.5434 5.83332 11.5625 5.83332 10.4167C5.83332 9.27083 6.29027 8.28993 7.20416 7.47396C8.11805 6.65799 9.21666 6.25 10.5 6.25C11.7833 6.25 12.8819 6.65799 13.7958 7.47396C14.7097 8.28993 15.1667 9.27083 15.1667 10.4167C15.1667 11.5625 14.7097 12.5434 13.7958 13.3594C12.8819 14.1753 11.7833 14.5833 10.5 14.5833ZM10.5 12.5C11.1417 12.5 11.691 12.296 12.1479 11.888C12.6049 11.48 12.8333 10.9896 12.8333 10.4167C12.8333 9.84375 12.6049 9.3533 12.1479 8.94531C11.691 8.53733 11.1417 8.33333 10.5 8.33333C9.85832 8.33333 9.30902 8.53733 8.85207 8.94531C8.39513 9.3533 8.16666 9.84375 8.16666 10.4167C8.16666 10.9896 8.39513 11.48 8.85207 11.888C9.30902 12.296 9.85832 12.5 10.5 12.5ZM1.16666 22.9167V20C1.16666 19.4097 1.3368 18.8672 1.67707 18.3724C2.01735 17.8776 2.46943 17.5 3.03332 17.2396C4.23888 16.7014 5.46388 16.2977 6.70832 16.0286C7.95277 15.7595 9.21666 15.625 10.5 15.625C11.7833 15.625 13.0472 15.7595 14.2917 16.0286C15.5361 16.2977 16.7611 16.7014 17.9667 17.2396C18.5305 17.5 18.9826 17.8776 19.3229 18.3724C19.6632 18.8672 19.8333 19.4097 19.8333 20V22.9167H1.16666ZM3.49999 20.8333H17.5V20C17.5 19.809 17.4465 19.6354 17.3396 19.4792C17.2326 19.3229 17.0917 19.2014 16.9167 19.1146C15.8667 18.6458 14.8069 18.2943 13.7375 18.0599C12.668 17.8255 11.5889 17.7083 10.5 17.7083C9.4111 17.7083 8.33193 17.8255 7.26249 18.0599C6.19305 18.2943 5.13332 18.6458 4.08332 19.1146C3.90832 19.2014 3.76735 19.3229 3.66041 19.4792C3.55346 19.6354 3.49999 19.809 3.49999 20V20.8333Z" fill="#67728A"/>
</svg>
