<svg width="60" height="60" viewBox="0 0 60 60" fill="none" xmlns="http://www.w3.org/2000/svg">
<path d="M59.3704 30.0672C59.3704 30.7929 59.1776 31.3711 58.7921 31.802C58.4066 32.2329 57.885 32.4483 57.2274 32.4483H33.0083C32.3507 32.4483 31.8291 32.2329 31.4436 31.802C31.0581 31.3711 30.8654 30.7929 30.8654 30.0672V29.3529C30.8654 28.6272 31.0581 28.049 31.4436 27.6181C31.8291 27.1872 32.3507 26.9718 33.0083 26.9718H57.2274C57.885 26.9718 58.4066 27.1872 58.7921 27.6181C59.1776 28.049 59.3704 28.6272 59.3704 29.3529V30.0672ZM59.3704 42.4489C59.3704 43.1745 59.1776 43.7528 58.7921 44.1837C58.4066 44.6145 57.885 44.8299 57.2274 44.8299H33.0083C32.3507 44.8299 31.8291 44.6145 31.4436 44.1837C31.0581 43.7528 30.8654 43.1745 30.8654 42.4489V35.6798C30.8654 34.9541 31.0581 34.3758 31.4436 33.945C31.8291 33.5141 32.3507 33.2987 33.0083 33.2987H57.2274C57.885 33.2987 58.4066 33.5141 58.7921 33.945C59.1776 34.3758 59.3704 34.9541 59.3704 35.6798V42.4489ZM47.8391 38.5711C47.0454 38.8659 46.1383 39.0133 45.1179 39.0133C44.0974 39.0133 43.1903 38.8659 42.3966 38.5711V39.5575C43.1903 39.8523 44.0974 39.9997 45.1179 39.9997C46.1383 39.9997 47.0454 39.8523 47.8391 39.5575V38.5711ZM47.8391 19.8966C47.0454 19.6245 46.1383 19.4884 45.1179 19.4884C44.0974 19.4884 43.1903 19.6245 42.3966 19.8966V20.883C43.1903 20.6109 44.0974 20.4748 45.1179 20.4748C46.1383 20.4748 47.0454 20.6109 47.8391 20.883V19.8966ZM37.3963 26.0534C36.6026 26.0307 35.843 25.9173 35.1173 25.7132C34.3916 25.5091 33.734 25.2143 33.1444 24.8288C32.5548 24.4433 32.0559 23.9784 31.6477 23.4342C31.2622 22.8673 31.0128 22.221 30.8994 21.4953C30.854 21.0418 30.82 20.6336 30.7973 20.2707C30.7973 19.9079 30.8313 19.4884 30.8994 19.0122C31.0128 18.2865 31.2622 17.6515 31.6477 17.1073C32.0559 16.5631 32.5548 16.1095 33.1444 15.7467C33.734 15.3612 34.3916 15.0664 35.1173 14.8623C35.843 14.6582 36.6026 14.5335 37.3963 14.4881C38.4622 14.4201 39.6754 14.3634 41.036 14.318C42.3966 14.2727 43.7799 14.25 45.1859 14.25C46.5919 14.25 47.9752 14.2727 49.3358 14.318C50.6964 14.3634 51.921 14.4201 53.0095 14.4881C53.7805 14.5335 54.5288 14.6582 55.2545 14.8623C55.9801 15.0664 56.6264 15.3612 57.1934 15.7467C57.7603 16.1095 58.2252 16.5631 58.588 17.1073C58.9735 17.6515 59.223 18.2865 59.3363 19.0122C59.4271 19.4884 59.4611 19.9079 59.4384 20.2707C59.4384 20.6336 59.4044 21.0418 59.3363 21.4953C59.2456 22.221 59.0075 22.8673 58.622 23.4342C58.2592 23.9784 57.783 24.4433 57.1934 24.8288C56.6264 25.2143 55.9801 25.5091 55.2545 25.7132C54.5288 25.9173 53.7805 26.0307 53.0095 26.0534C51.921 26.0761 50.6964 26.0987 49.3358 26.1214C47.9752 26.1214 46.5919 26.1214 45.1859 26.1214C43.7799 26.1214 42.3966 26.1214 41.036 26.1214C39.6754 26.0987 38.4622 26.0761 37.3963 26.0534Z" fill="#235FFF"/>
<path d="M28.7431 42.4488C28.7431 43.1745 28.5503 43.7528 28.1648 44.1836C27.7793 44.6145 27.2578 44.8299 26.6001 44.8299H21.974C21.3164 44.8299 20.7948 44.6145 20.4093 44.1836C20.0238 43.7528 19.831 43.1745 19.831 42.4488V17.0052C19.831 16.2796 20.0238 15.7013 20.4093 15.2704C20.7948 14.8396 21.3164 14.6241 21.974 14.6241H26.6001C27.2578 14.6241 27.7793 14.8396 28.1648 15.2704C28.5503 15.7013 28.7431 16.2796 28.7431 17.0052V42.4488ZM18.9126 37.7547C18.8673 38.6164 18.7199 39.4555 18.4704 40.2718C18.221 41.0882 17.8581 41.8252 17.3819 42.4828C16.9057 43.1405 16.3161 43.6734 15.6131 44.0816C14.9328 44.5124 14.1504 44.7619 13.266 44.8299C12.5857 44.8753 11.9621 44.9093 11.3952 44.932C10.8283 44.9773 10.2727 45 9.72843 45C9.20686 45 8.66262 44.9773 8.09569 44.932C7.52877 44.9093 6.90515 44.8753 6.22484 44.8299C5.31776 44.7619 4.50139 44.5124 3.77572 44.0816C3.05006 43.6734 2.42644 43.1405 1.90487 42.4828C1.40597 41.8252 1.00913 41.0882 0.714326 40.2718C0.419525 39.4555 0.260786 38.6164 0.238109 37.7547C0.170078 36.0539 0.113385 34.5799 0.068031 33.3327C0.022677 32.0854 0 30.8836 0 29.727C0 28.5705 0.022677 27.3686 0.068031 26.1214C0.113385 24.8742 0.170078 23.4001 0.238109 21.6994C0.260786 20.8376 0.419525 19.9986 0.714326 19.1822C1.00913 18.3659 1.40597 17.6288 1.90487 16.9712C2.42644 16.3136 3.05006 15.7807 3.77572 15.3725C4.50139 14.9416 5.31776 14.6922 6.22484 14.6241C6.90515 14.5788 7.52877 14.5448 8.09569 14.5221C8.66262 14.4994 9.20686 14.4881 9.72843 14.4881C10.2727 14.4881 10.8283 14.4994 11.3952 14.5221C11.9621 14.5448 12.5857 14.5788 13.266 14.6241C14.1504 14.6922 14.9328 14.9416 15.6131 15.3725C16.3161 15.7807 16.9057 16.3136 17.3819 16.9712C17.8581 17.6062 18.221 18.3318 18.4704 19.1482C18.7199 19.9646 18.8673 20.815 18.9126 21.6994C18.9807 23.4001 19.0373 24.8742 19.0827 26.1214C19.1281 27.3686 19.1507 28.5705 19.1507 29.727C19.1507 30.8836 19.1281 32.0854 19.0827 33.3327C19.0373 34.5799 18.9807 36.0539 18.9126 37.7547ZM10.0686 36.9383C10.4087 34.6253 10.5788 32.2215 10.5788 29.727C10.5788 27.2326 10.4087 24.8288 10.0686 22.5157H9.08214C9.39962 24.8288 9.55836 27.2326 9.55836 29.727C9.55836 32.2215 9.39962 34.6253 9.08214 36.9383H10.0686Z" fill="#235FFF"/>
</svg>
