<svg width="77" height="41" viewBox="0 0 77 41" fill="none" xmlns="http://www.w3.org/2000/svg">
<path d="M76.4215 21.0896C76.4215 22.0572 76.1645 22.8282 75.6505 23.4027C75.1365 23.9772 74.4411 24.2644 73.5642 24.2644H41.2722C40.3953 24.2644 39.6999 23.9772 39.1859 23.4027C38.6719 22.8282 38.4149 22.0572 38.4149 21.0896V20.1372C38.4149 19.1696 38.6719 18.3986 39.1859 17.8241C39.6999 17.2496 40.3953 16.9624 41.2722 16.9624H73.5642C74.4411 16.9624 75.1365 17.2496 75.6505 17.8241C76.1645 18.3986 76.4215 19.1696 76.4215 20.1372V21.0896ZM76.4215 37.5985C76.4215 38.566 76.1645 39.3371 75.6505 39.9115C75.1365 40.486 74.4411 40.7733 73.5642 40.7733H41.2722C40.3953 40.7733 39.6999 40.486 39.1859 39.9115C38.6719 39.3371 38.4149 38.566 38.4149 37.5985V28.573C38.4149 27.6055 38.6719 26.8345 39.1859 26.26C39.6999 25.6855 40.3953 25.3982 41.2722 25.3982H73.5642C74.4411 25.3982 75.1365 25.6855 75.6505 26.26C76.1645 26.8345 76.4215 27.6055 76.4215 28.573V37.5985ZM61.0465 32.4281C59.9883 32.8212 58.7788 33.0177 57.4182 33.0177C56.0576 33.0177 54.8481 32.8212 53.7899 32.4281V33.7434C54.8481 34.1365 56.0576 34.333 57.4182 34.333C58.7788 34.333 59.9883 34.1365 61.0465 33.7434V32.4281ZM61.0465 7.52877C59.9883 7.16593 58.7788 6.98452 57.4182 6.98452C56.0576 6.98452 54.8481 7.16593 53.7899 7.52877V8.84403C54.8481 8.4812 56.0576 8.29979 57.4182 8.29979C58.7788 8.29979 59.9883 8.4812 61.0465 8.84403V7.52877ZM47.1228 15.7378C46.0646 15.7076 45.0517 15.5564 44.0841 15.2843C43.1166 15.0122 42.2397 14.6191 41.4536 14.1051C40.6674 13.5911 40.0023 12.9712 39.458 12.2456C38.944 11.4897 38.6114 10.628 38.4602 9.66041C38.3997 9.05569 38.3544 8.51144 38.3242 8.02766C38.3242 7.54388 38.3695 6.98452 38.4602 6.34956C38.6114 5.38201 38.944 4.5354 39.458 3.80974C40.0023 3.08407 40.6674 2.47935 41.4536 1.99558C42.2397 1.48156 43.1166 1.0885 44.0841 0.816373C45.0517 0.544248 46.0646 0.37795 47.1228 0.317477C48.5439 0.22677 50.1616 0.15118 51.9757 0.0907069C53.7899 0.0302356 55.6343 0 57.5089 0C59.3835 0 61.2279 0.0302356 63.0421 0.0907069C64.8562 0.15118 66.489 0.22677 67.9403 0.317477C68.9683 0.37795 69.9661 0.544248 70.9337 0.816373C71.9012 1.0885 72.763 1.48156 73.5189 1.99558C74.2748 2.47935 74.8946 3.08407 75.3784 3.80974C75.8924 4.5354 76.225 5.38201 76.3762 6.34956C76.4971 6.98452 76.5425 7.54388 76.5122 8.02766C76.5122 8.51144 76.4669 9.05569 76.3762 9.66041C76.2552 10.628 75.9378 11.4897 75.4237 12.2456C74.94 12.9712 74.305 13.5911 73.5189 14.1051C72.763 14.6191 71.9012 15.0122 70.9337 15.2843C69.9661 15.5564 68.9683 15.7076 67.9403 15.7378C66.489 15.7681 64.8562 15.7983 63.0421 15.8286C61.2279 15.8286 59.3835 15.8286 57.5089 15.8286C55.6343 15.8286 53.7899 15.8286 51.9757 15.8286C50.1616 15.7983 48.5439 15.7681 47.1228 15.7378Z" fill="#CFD9E0"/>
<path d="M38.3241 37.5984C38.3241 38.5659 38.0671 39.337 37.5531 39.9114C37.0391 40.4859 36.3437 40.7732 35.4668 40.7732H29.2987C28.4218 40.7732 27.7264 40.4859 27.2124 39.9114C26.6984 39.337 26.4414 38.5659 26.4414 37.5984V3.67358C26.4414 2.70603 26.6984 1.93501 27.2124 1.36052C27.7264 0.786041 28.4218 0.498799 29.2987 0.498799H35.4668C36.3437 0.498799 37.0391 0.786041 37.5531 1.36052C38.0671 1.93501 38.3241 2.70603 38.3241 3.67358V37.5984ZM25.2168 31.3395C25.1564 32.4885 24.9598 33.6072 24.6272 34.6957C24.2946 35.7842 23.8109 36.7669 23.1759 37.6437C22.5409 38.5206 21.7548 39.2311 20.8175 39.7754C19.9104 40.3499 18.8673 40.6825 17.6881 40.7732C16.781 40.8336 15.9495 40.879 15.1936 40.9092C14.4377 40.9697 13.6969 40.9999 12.9712 40.9999C12.2758 40.9999 11.5502 40.9697 10.7943 40.9092C10.0384 40.879 9.20686 40.8336 8.29978 40.7732C7.09034 40.6825 6.00185 40.3499 5.03429 39.7754C4.06674 39.2311 3.23525 38.5206 2.53982 37.6437C1.87463 36.7669 1.3455 35.7842 0.952434 34.6957C0.559366 33.6072 0.347714 32.4885 0.317478 31.3395C0.22677 29.0718 0.15118 27.1065 0.090708 25.4435C0.030236 23.7805 0 22.178 0 20.636C0 19.0939 0.030236 17.4914 0.090708 15.8285C0.15118 14.1655 0.22677 12.2001 0.317478 9.93243C0.347714 8.78347 0.559366 7.66473 0.952434 6.57624C1.3455 5.48774 1.87463 4.50507 2.53982 3.62823C3.23525 2.75138 4.06674 2.04084 5.03429 1.49659C6.00185 0.922104 7.09034 0.589508 8.29978 0.498799C9.20686 0.438328 10.0384 0.392974 10.7943 0.362739C11.5502 0.332501 12.2758 0.317383 12.9712 0.317383C13.6969 0.317383 14.4377 0.332501 15.1936 0.362739C15.9495 0.392974 16.781 0.438328 17.6881 0.498799C18.8673 0.589508 19.9104 0.922104 20.8175 1.49659C21.7548 2.04084 22.5409 2.75138 23.1759 3.62823C23.8109 4.47483 24.2946 5.44239 24.6272 6.53088C24.9598 7.61938 25.1564 8.75323 25.2168 9.93243C25.3075 12.2001 25.3831 14.1655 25.4436 15.8285C25.5041 17.4914 25.5343 19.0939 25.5343 20.636C25.5343 22.178 25.5041 23.7805 25.4436 25.4435C25.3831 27.1065 25.3075 29.0718 25.2168 31.3395ZM13.4248 30.251C13.8783 27.167 14.1051 23.9619 14.1051 20.636C14.1051 17.31 13.8783 14.105 13.4248 11.0209H12.1095C12.5328 14.105 12.7445 17.31 12.7445 20.636C12.7445 23.9619 12.5328 27.167 12.1095 30.251H13.4248Z" fill="#CFD9E0"/>
</svg>
