<svg width="55" height="26" viewBox="0 0 55 26" fill="none" xmlns="http://www.w3.org/2000/svg">
<path d="M0 4C0 1.79086 1.79086 0 4 0H51C53.2091 0 55 1.79086 55 4V22C55 24.2091 53.2091 26 51 26H4C1.79086 26 0 24.2091 0 22V4Z" fill="#E9EFFF"/>
<path d="M19.6748 19.1865H18.5762V6.16406H19.6748V19.1865ZM16.9355 18.5273H15.8369V12.4482H13.0757C12.2456 14.04 10.959 15.3486 9.21582 16.374L8.54199 15.5391C9.93359 14.7188 10.998 13.7373 11.7354 12.5947C12.4775 11.4473 12.9023 10.1777 13.0098 8.78613H9.09863V7.83398H14.1523C14.1426 9.16211 13.9253 10.3877 13.5005 11.5107H15.8369V6.51562H16.9355V18.5273ZM25.7901 9.66504C25.7852 10.4365 25.9415 11.2031 26.2589 11.9648C26.5763 12.7217 27.0059 13.3955 27.5479 13.9863C28.0899 14.5771 28.6807 15.0166 29.3204 15.3047L28.6173 16.2129C27.8751 15.8467 27.2013 15.3022 26.5958 14.5796C25.9952 13.8521 25.5411 13.0269 25.2335 12.104C24.9307 13.0854 24.4766 13.9644 23.8712 14.7407C23.2657 15.5122 22.5821 16.0908 21.8204 16.4766L21.088 15.5098C21.7276 15.2119 22.3184 14.7603 22.8604 14.1548C23.4024 13.5444 23.8346 12.8462 24.1568 12.0601C24.4791 11.269 24.6427 10.4707 24.6475 9.66504V7.29199H25.7901V9.66504ZM31.8985 19.2158H30.7413V6.16406H31.8985V19.2158ZM44.1515 7.57031C44.1515 8.2002 44.1344 8.77393 44.1003 9.2915C44.0661 9.80908 43.9855 10.3926 43.8586 11.042H45.7189V11.9648H33.7951V11.042H42.7013C42.8332 10.3975 42.9162 9.81885 42.9504 9.30615C42.9894 8.78857 43.0089 8.24414 43.0089 7.67285H35.3039V6.73535H44.1515V7.57031ZM44.1955 16.5645H36.3879V18.1025H44.5324V19.04H35.2306V15.6562H43.0529V14.2061H35.216V13.2832H44.1955V16.5645Z" fill="#235FFF"/>
</svg>
